<svg xmlns="http://www.w3.org/2000/svg" viewBox="0 0 24 24" fill="currentColor">
  <path d="M12 .5C5.65.5.5 5.65.5 12c0 5.09 3.29 9.4 7.86 10.93.57.1.78-.25.78-.55v-1.93c-3.2.7-3.87-1.54-3.87-1.54-.52-1.33-1.28-1.68-1.28-1.68-1.04-.71.08-.7.08-.7 1.15.08 1.76 1.18 1.76 1.18 1.02 1.75 2.68 1.24 3.33.95.1-.74.4-1.24.72-1.53-2.55-.29-5.23-1.27-5.23-5.67 0-1.25.45-2.27 1.18-3.07-.12-.29-.51-1.46.11-3.04 0 0 .96-.31 3.15 1.17a10.96 10.96 0 012.87-.39c.97 0 1.95.13 2.87.39 2.18-1.48 3.14-1.17 3.14-1.17.62 1.58.23 2.75.11 3.04.74.8 1.18 1.82 1.18 3.07 0 4.41-2.69 5.38-5.25 5.66.41.36.78 1.07.78 2.15v3.19c0 .3.2.66.79.55A11.51 11.51 0 0023.5 12C23.5 5.65 18.35.5 12 .5z"/>
</svg>
